<?xml version="1.0" encoding="UTF-8" standalone="no"?>
<!DOCTYPE svg PUBLIC "-//W3C//DTD SVG 1.1//EN"
 "http://www.w3.org/Graphics/SVG/1.1/DTD/svg11.dtd">
<!-- Generated by graphviz version 2.40.1 (20161225.0304)
 -->
<!-- Title: dependencies Pages: 1 -->
<svg width="3636pt" height="284pt"
 viewBox="0.00 0.00 3636.00 284.00" xmlns="http://www.w3.org/2000/svg" xmlns:xlink="http://www.w3.org/1999/xlink">
<g id="graph0" class="graph" transform="scale(1 1) rotate(0) translate(4 280)">
<title>dependencies</title>
<polygon fill="#ffffff" stroke="transparent" points="-4,4 -4,-280 3632,-280 3632,4 -4,4"/>
<text text-anchor="start" x="1793.0091" y="-42.4" font-family="sans-serif" font-weight="bold" font-size="14.00" fill="#000000">Legend</text>
<polygon fill="#ffffb3" stroke="transparent" points="1580,-10 1580,-30 1600,-30 1600,-10 1580,-10"/>
<text text-anchor="start" x="1603.629" y="-15.4" font-family="sans-serif" font-size="14.00" fill="#000000"> &#160;Declarations</text>
<polygon fill="#8dd3c7" stroke="transparent" points="1693,-10 1693,-30 1713,-30 1713,-10 1693,-10"/>
<text text-anchor="start" x="1716.7251" y="-15.4" font-family="sans-serif" font-size="14.00" fill="#000000"> &#160;Module</text>
<polygon fill="#80b1d3" stroke="transparent" points="1779,-10 1779,-30 1799,-30 1799,-10 1779,-10"/>
<text text-anchor="start" x="1802.7812" y="-15.4" font-family="sans-serif" font-size="14.00" fill="#000000"> &#160;Bootstrap</text>
<polygon fill="#fdb462" stroke="transparent" points="1876,-10 1876,-30 1896,-30 1896,-10 1876,-10"/>
<text text-anchor="start" x="1899.6732" y="-15.4" font-family="sans-serif" font-size="14.00" fill="#000000"> &#160;Providers</text>
<polygon fill="#fb8072" stroke="transparent" points="1972,-10 1972,-30 1992,-30 1992,-10 1972,-10"/>
<text text-anchor="start" x="1995.7258" y="-15.4" font-family="sans-serif" font-size="14.00" fill="#000000"> &#160;Exports</text>
<g id="clust7" class="cluster">
<title>cluster_AppModule</title>
<polygon fill="none" stroke="#000000" stroke-dasharray="1,5" points="8,-70 8,-268 3620,-268 3620,-70 8,-70"/>
</g>
<g id="clust8" class="cluster">
<title>cluster_AppModule_declarations</title>
<polygon fill="none" stroke="#000000" points="1105,-78 1105,-130 3612,-130 3612,-78 1105,-78"/>
</g>
<g id="clust28" class="cluster">
<title>cluster_AppModule_bootstrap</title>
<polygon fill="none" stroke="#000000" points="1809,-208 1809,-260 1933,-260 1933,-208 1809,-208"/>
</g>
<g id="clust29" class="cluster">
<title>cluster_AppModule_providers</title>
<polygon fill="none" stroke="#000000" points="16,-78 16,-130 1097,-130 1097,-78 16,-78"/>
</g>
<!-- AccountComponent -->
<g id="node1" class="node">
<title>AccountComponent</title>
<polygon fill="#ffffb3" stroke="#000000" points="3604.259,-122 3475.741,-122 3475.741,-86 3604.259,-86 3604.259,-122"/>
<text text-anchor="middle" x="3540" y="-99.8" font-family="Times,serif" font-size="14.00" fill="#000000">AccountComponent</text>
</g>
<!-- AppModule -->
<g id="node18" class="node">
<title>AppModule</title>
<polygon fill="#8dd3c7" stroke="#000000" points="1912.6571,-187 1909.6571,-191 1888.6571,-191 1885.6571,-187 1829.3429,-187 1829.3429,-151 1912.6571,-151 1912.6571,-187"/>
<text text-anchor="middle" x="1871" y="-164.8" font-family="Times,serif" font-size="14.00" fill="#000000">AppModule</text>
</g>
<!-- AccountComponent&#45;&gt;AppModule -->
<g id="edge1" class="edge">
<title>AccountComponent&#45;&gt;AppModule</title>
<path fill="none" stroke="#000000" d="M3540,-122.1532C3540,-145.7566 3540,-184 3540,-184 3540,-184 1922.6728,-184 1922.6728,-184"/>
<polygon fill="#000000" stroke="#000000" points="1922.6728,-180.5001 1912.6728,-184 1922.6728,-187.5001 1922.6728,-180.5001"/>
</g>
<!-- AddressComponent -->
<g id="node2" class="node">
<title>AddressComponent</title>
<polygon fill="#ffffb3" stroke="#000000" points="3457.7036,-122 3330.2964,-122 3330.2964,-86 3457.7036,-86 3457.7036,-122"/>
<text text-anchor="middle" x="3394" y="-99.8" font-family="Times,serif" font-size="14.00" fill="#000000">AddressComponent</text>
</g>
<!-- AddressComponent&#45;&gt;AppModule -->
<g id="edge2" class="edge">
<title>AddressComponent&#45;&gt;AppModule</title>
<path fill="none" stroke="#000000" d="M3394,-122.2479C3394,-145.0179 3394,-181 3394,-181 3394,-181 1922.924,-181 1922.924,-181"/>
<polygon fill="#000000" stroke="#000000" points="1922.924,-177.5001 1912.924,-181 1922.924,-184.5001 1922.924,-177.5001"/>
</g>
<!-- AlertComponent -->
<g id="node3" class="node">
<title>AlertComponent</title>
<polygon fill="#ffffb3" stroke="#000000" points="3312.0954,-122 3201.9046,-122 3201.9046,-86 3312.0954,-86 3312.0954,-122"/>
<text text-anchor="middle" x="3257" y="-99.8" font-family="Times,serif" font-size="14.00" fill="#000000">AlertComponent</text>
</g>
<!-- AlertComponent&#45;&gt;AppModule -->
<g id="edge3" class="edge">
<title>AlertComponent&#45;&gt;AppModule</title>
<path fill="none" stroke="#000000" d="M3257,-122.2921C3257,-144.2057 3257,-178 3257,-178 3257,-178 1922.8578,-178 1922.8578,-178"/>
<polygon fill="#000000" stroke="#000000" points="1922.8579,-174.5001 1912.8578,-178 1922.8578,-181.5001 1922.8579,-174.5001"/>
</g>
<!-- AppComponent -->
<g id="node4" class="node">
<title>AppComponent</title>
<polygon fill="#ffffb3" stroke="#000000" points="3183.9399,-122 3078.0601,-122 3078.0601,-86 3183.9399,-86 3183.9399,-122"/>
<text text-anchor="middle" x="3131" y="-99.8" font-family="Times,serif" font-size="14.00" fill="#000000">AppComponent</text>
</g>
<!-- AppComponent&#45;&gt;AppModule -->
<g id="edge4" class="edge">
<title>AppComponent&#45;&gt;AppModule</title>
<path fill="none" stroke="#000000" d="M3131,-122.2843C3131,-143.3211 3131,-175 3131,-175 3131,-175 1922.9225,-175 1922.9225,-175"/>
<polygon fill="#000000" stroke="#000000" points="1922.9225,-171.5001 1912.9225,-175 1922.9224,-178.5001 1922.9225,-171.5001"/>
</g>
<!-- BatchComponent -->
<g id="node5" class="node">
<title>BatchComponent</title>
<polygon fill="#ffffb3" stroke="#000000" points="3059.9888,-122 2946.0112,-122 2946.0112,-86 3059.9888,-86 3059.9888,-122"/>
<text text-anchor="middle" x="3003" y="-99.8" font-family="Times,serif" font-size="14.00" fill="#000000">BatchComponent</text>
</g>
<!-- BatchComponent&#45;&gt;AppModule -->
<g id="edge5" class="edge">
<title>BatchComponent&#45;&gt;AppModule</title>
<path fill="none" stroke="#000000" d="M3003,-122.2228C3003,-142.3652 3003,-172 3003,-172 3003,-172 1922.9697,-172 1922.9697,-172"/>
<polygon fill="#000000" stroke="#000000" points="1922.9698,-168.5001 1912.9697,-172 1922.9697,-175.5001 1922.9698,-168.5001"/>
</g>
<!-- CreateAdminComponent -->
<g id="node6" class="node">
<title>CreateAdminComponent</title>
<polygon fill="#ffffb3" stroke="#000000" points="2928.252,-122 2771.748,-122 2771.748,-86 2928.252,-86 2928.252,-122"/>
<text text-anchor="middle" x="2850" y="-99.8" font-family="Times,serif" font-size="14.00" fill="#000000">CreateAdminComponent</text>
</g>
<!-- CreateAdminComponent&#45;&gt;AppModule -->
<g id="edge6" class="edge">
<title>CreateAdminComponent&#45;&gt;AppModule</title>
<path fill="none" stroke="#000000" d="M2850,-122.1061C2850,-141.3391 2850,-169 2850,-169 2850,-169 1922.7532,-169 1922.7532,-169"/>
<polygon fill="#000000" stroke="#000000" points="1922.7533,-165.5001 1912.7532,-169 1922.7532,-172.5001 1922.7533,-165.5001"/>
</g>
<!-- DetailComponent -->
<g id="node7" class="node">
<title>DetailComponent</title>
<polygon fill="#ffffb3" stroke="#000000" points="2753.5409,-122 2638.4591,-122 2638.4591,-86 2753.5409,-86 2753.5409,-122"/>
<text text-anchor="middle" x="2696" y="-99.8" font-family="Times,serif" font-size="14.00" fill="#000000">DetailComponent</text>
</g>
<!-- DetailComponent&#45;&gt;AppModule -->
<g id="edge7" class="edge">
<title>DetailComponent&#45;&gt;AppModule</title>
<path fill="none" stroke="#000000" d="M2696,-122.2667C2696,-140.5552 2696,-166 2696,-166 2696,-166 1922.7612,-166 1922.7612,-166"/>
<polygon fill="#000000" stroke="#000000" points="1922.7613,-162.5001 1912.7612,-166 1922.7612,-169.5001 1922.7613,-162.5001"/>
</g>
<!-- DisclaimersComponent -->
<g id="node8" class="node">
<title>DisclaimersComponent</title>
<polygon fill="#ffffb3" stroke="#000000" points="2620.1951,-122 2471.8049,-122 2471.8049,-86 2620.1951,-86 2620.1951,-122"/>
<text text-anchor="middle" x="2546" y="-99.8" font-family="Times,serif" font-size="14.00" fill="#000000">DisclaimersComponent</text>
</g>
<!-- DisclaimersComponent&#45;&gt;AppModule -->
<g id="edge8" class="edge">
<title>DisclaimersComponent&#45;&gt;AppModule</title>
<path fill="none" stroke="#000000" d="M2546,-122.0225C2546,-139.3734 2546,-163 2546,-163 2546,-163 1922.7149,-163 1922.7149,-163"/>
<polygon fill="#000000" stroke="#000000" points="1922.7149,-159.5001 1912.7149,-163 1922.7148,-166.5001 1922.7149,-159.5001"/>
</g>
<!-- DocumentsComponent -->
<g id="node9" class="node">
<title>DocumentsComponent</title>
<polygon fill="#ffffb3" stroke="#000000" points="2453.594,-122 2308.406,-122 2308.406,-86 2453.594,-86 2453.594,-122"/>
<text text-anchor="middle" x="2381" y="-99.8" font-family="Times,serif" font-size="14.00" fill="#000000">DocumentsComponent</text>
</g>
<!-- DocumentsComponent&#45;&gt;AppModule -->
<g id="edge9" class="edge">
<title>DocumentsComponent&#45;&gt;AppModule</title>
<path fill="none" stroke="#000000" d="M2381,-122.027C2381,-138.3976 2381,-160 2381,-160 2381,-160 1922.7354,-160 1922.7354,-160"/>
<polygon fill="#000000" stroke="#000000" points="1922.7355,-156.5001 1912.7354,-160 1922.7354,-163.5001 1922.7355,-156.5001"/>
</g>
<!-- EnterpriseComponent -->
<g id="node10" class="node">
<title>EnterpriseComponent</title>
<polygon fill="#ffffb3" stroke="#000000" points="2290.3613,-122 2151.6387,-122 2151.6387,-86 2290.3613,-86 2290.3613,-122"/>
<text text-anchor="middle" x="2221" y="-99.8" font-family="Times,serif" font-size="14.00" fill="#000000">EnterpriseComponent</text>
</g>
<!-- EnterpriseComponent&#45;&gt;AppModule -->
<g id="edge10" class="edge">
<title>EnterpriseComponent&#45;&gt;AppModule</title>
<path fill="none" stroke="#000000" d="M2221,-122.2396C2221,-137.5706 2221,-157 2221,-157 2221,-157 1922.8705,-157 1922.8705,-157"/>
<polygon fill="#000000" stroke="#000000" points="1922.8706,-153.5001 1912.8705,-157 1922.8705,-160.5001 1922.8706,-153.5001"/>
</g>
<!-- LoginComponent -->
<g id="node11" class="node">
<title>LoginComponent</title>
<polygon fill="#ffffb3" stroke="#000000" points="2133.2758,-122 2018.7242,-122 2018.7242,-86 2133.2758,-86 2133.2758,-122"/>
<text text-anchor="middle" x="2076" y="-99.8" font-family="Times,serif" font-size="14.00" fill="#000000">LoginComponent</text>
</g>
<!-- LoginComponent&#45;&gt;AppModule -->
<g id="edge11" class="edge">
<title>LoginComponent&#45;&gt;AppModule</title>
<path fill="none" stroke="#000000" d="M2076,-122.0511C2076,-136.373 2076,-154 2076,-154 2076,-154 1922.9795,-154 1922.9795,-154"/>
<polygon fill="#000000" stroke="#000000" points="1922.9795,-150.5001 1912.9795,-154 1922.9795,-157.5001 1922.9795,-150.5001"/>
</g>
<!-- NavbarComponent -->
<g id="node12" class="node">
<title>NavbarComponent</title>
<polygon fill="#ffffb3" stroke="#000000" points="2000.0297,-122 1877.9703,-122 1877.9703,-86 2000.0297,-86 2000.0297,-122"/>
<text text-anchor="middle" x="1939" y="-99.8" font-family="Times,serif" font-size="14.00" fill="#000000">NavbarComponent</text>
</g>
<!-- NavbarComponent&#45;&gt;AppModule -->
<g id="edge12" class="edge">
<title>NavbarComponent&#45;&gt;AppModule</title>
<path fill="none" stroke="#000000" d="M1895.2819,-122.1061C1895.2819,-122.1061 1895.2819,-140.991 1895.2819,-140.991"/>
<polygon fill="#000000" stroke="#000000" points="1891.782,-140.9909 1895.2819,-150.991 1898.782,-140.991 1891.782,-140.9909"/>
</g>
<!-- OtherComponent -->
<g id="node13" class="node">
<title>OtherComponent</title>
<polygon fill="#ffffb3" stroke="#000000" points="1859.705,-122 1746.295,-122 1746.295,-86 1859.705,-86 1859.705,-122"/>
<text text-anchor="middle" x="1803" y="-99.8" font-family="Times,serif" font-size="14.00" fill="#000000">OtherComponent</text>
</g>
<!-- OtherComponent&#45;&gt;AppModule -->
<g id="edge13" class="edge">
<title>OtherComponent&#45;&gt;AppModule</title>
<path fill="none" stroke="#000000" d="M1844.3871,-122.1061C1844.3871,-122.1061 1844.3871,-140.991 1844.3871,-140.991"/>
<polygon fill="#000000" stroke="#000000" points="1840.8872,-140.9909 1844.3871,-150.991 1847.8872,-140.991 1840.8872,-140.9909"/>
</g>
<!-- PasswordChangeComponent -->
<g id="node14" class="node">
<title>PasswordChangeComponent</title>
<polygon fill="#ffffb3" stroke="#000000" points="1728.752,-122 1551.248,-122 1551.248,-86 1728.752,-86 1728.752,-122"/>
<text text-anchor="middle" x="1640" y="-99.8" font-family="Times,serif" font-size="14.00" fill="#000000">PasswordChangeComponent</text>
</g>
<!-- PasswordChangeComponent&#45;&gt;AppModule -->
<g id="edge14" class="edge">
<title>PasswordChangeComponent&#45;&gt;AppModule</title>
<path fill="none" stroke="#000000" d="M1640,-122.0511C1640,-136.373 1640,-154 1640,-154 1640,-154 1819.1676,-154 1819.1676,-154"/>
<polygon fill="#000000" stroke="#000000" points="1819.1677,-157.5001 1829.1676,-154 1819.1676,-150.5001 1819.1677,-157.5001"/>
</g>
<!-- PersonalComponent -->
<g id="node15" class="node">
<title>PersonalComponent</title>
<polygon fill="#ffffb3" stroke="#000000" points="1532.5408,-122 1403.4592,-122 1403.4592,-86 1532.5408,-86 1532.5408,-122"/>
<text text-anchor="middle" x="1468" y="-99.8" font-family="Times,serif" font-size="14.00" fill="#000000">PersonalComponent</text>
</g>
<!-- PersonalComponent&#45;&gt;AppModule -->
<g id="edge15" class="edge">
<title>PersonalComponent&#45;&gt;AppModule</title>
<path fill="none" stroke="#000000" d="M1468,-122.2396C1468,-137.5706 1468,-157 1468,-157 1468,-157 1819.0124,-157 1819.0124,-157"/>
<polygon fill="#000000" stroke="#000000" points="1819.0124,-160.5001 1829.0124,-157 1819.0124,-153.5001 1819.0124,-160.5001"/>
</g>
<!-- RegisterComponent -->
<g id="node16" class="node">
<title>RegisterComponent</title>
<polygon fill="#ffffb3" stroke="#000000" points="1384.9846,-122 1257.0154,-122 1257.0154,-86 1384.9846,-86 1384.9846,-122"/>
<text text-anchor="middle" x="1321" y="-99.8" font-family="Times,serif" font-size="14.00" fill="#000000">RegisterComponent</text>
</g>
<!-- RegisterComponent&#45;&gt;AppModule -->
<g id="edge16" class="edge">
<title>RegisterComponent&#45;&gt;AppModule</title>
<path fill="none" stroke="#000000" d="M1321,-122.027C1321,-138.3976 1321,-160 1321,-160 1321,-160 1819.2092,-160 1819.2092,-160"/>
<polygon fill="#000000" stroke="#000000" points="1819.2092,-163.5001 1829.2092,-160 1819.2091,-156.5001 1819.2092,-163.5001"/>
</g>
<!-- SettingsComponent -->
<g id="node17" class="node">
<title>SettingsComponent</title>
<polygon fill="#ffffb3" stroke="#000000" points="1239.4468,-122 1112.5532,-122 1112.5532,-86 1239.4468,-86 1239.4468,-122"/>
<text text-anchor="middle" x="1176" y="-99.8" font-family="Times,serif" font-size="14.00" fill="#000000">SettingsComponent</text>
</g>
<!-- SettingsComponent&#45;&gt;AppModule -->
<g id="edge17" class="edge">
<title>SettingsComponent&#45;&gt;AppModule</title>
<path fill="none" stroke="#000000" d="M1176,-122.0225C1176,-139.3734 1176,-163 1176,-163 1176,-163 1819.0898,-163 1819.0898,-163"/>
<polygon fill="#000000" stroke="#000000" points="1819.0898,-166.5001 1829.0898,-163 1819.0897,-159.5001 1819.0898,-166.5001"/>
</g>
<!-- AppComponent  -->
<g id="node19" class="node">
<title>AppComponent </title>
<polygon fill="#80b1d3" stroke="#000000" points="1925.439,-252 1816.561,-252 1816.561,-216 1925.439,-216 1925.439,-252"/>
<text text-anchor="middle" x="1871" y="-229.8" font-family="Times,serif" font-size="14.00" fill="#000000">AppComponent </text>
</g>
<!-- AppModule&#45;&gt;AppComponent  -->
<g id="edge18" class="edge">
<title>AppModule&#45;&gt;AppComponent </title>
<path fill="none" stroke="#000000" stroke-dasharray="1,5" d="M1871,-187.1061C1871,-187.1061 1871,-205.991 1871,-205.991"/>
<polygon fill="#000000" stroke="#000000" points="1867.5001,-205.9909 1871,-215.991 1874.5001,-205.991 1867.5001,-205.9909"/>
</g>
<!-- AlertService -->
<g id="node20" class="node">
<title>AlertService</title>
<ellipse fill="#fdb462" stroke="#000000" cx="1029" cy="-104" rx="59.6646" ry="18"/>
<text text-anchor="middle" x="1029" y="-99.8" font-family="Times,serif" font-size="14.00" fill="#000000">AlertService</text>
</g>
<!-- AlertService&#45;&gt;AppModule -->
<g id="edge19" class="edge">
<title>AlertService&#45;&gt;AppModule</title>
<path fill="none" stroke="#000000" d="M1029,-122.2667C1029,-140.5552 1029,-166 1029,-166 1029,-166 1819.2451,-166 1819.2451,-166"/>
<polygon fill="#000000" stroke="#000000" points="1819.2451,-169.5001 1829.2451,-166 1819.2451,-162.5001 1819.2451,-169.5001"/>
</g>
<!-- AuthGuard -->
<g id="node21" class="node">
<title>AuthGuard</title>
<ellipse fill="#fdb462" stroke="#000000" cx="897" cy="-104" rx="54.4566" ry="18"/>
<text text-anchor="middle" x="897" y="-99.8" font-family="Times,serif" font-size="14.00" fill="#000000">AuthGuard</text>
</g>
<!-- AuthGuard&#45;&gt;AppModule -->
<g id="edge20" class="edge">
<title>AuthGuard&#45;&gt;AppModule</title>
<path fill="none" stroke="#000000" d="M897,-122.1061C897,-141.3391 897,-169 897,-169 897,-169 1819.1484,-169 1819.1484,-169"/>
<polygon fill="#000000" stroke="#000000" points="1819.1485,-172.5001 1829.1484,-169 1819.1484,-165.5001 1819.1485,-172.5001"/>
</g>
<!-- AuthenticationService -->
<g id="node22" class="node">
<title>AuthenticationService</title>
<ellipse fill="#fdb462" stroke="#000000" cx="727" cy="-104" rx="97.2683" ry="18"/>
<text text-anchor="middle" x="727" y="-99.8" font-family="Times,serif" font-size="14.00" fill="#000000">AuthenticationService</text>
</g>
<!-- AuthenticationService&#45;&gt;AppModule -->
<g id="edge21" class="edge">
<title>AuthenticationService&#45;&gt;AppModule</title>
<path fill="none" stroke="#000000" d="M727,-122.2228C727,-142.3652 727,-172 727,-172 727,-172 1819.2688,-172 1819.2688,-172"/>
<polygon fill="#000000" stroke="#000000" points="1819.2688,-175.5001 1829.2688,-172 1819.2687,-168.5001 1819.2688,-175.5001"/>
</g>
<!-- CallsService -->
<g id="node23" class="node">
<title>CallsService</title>
<ellipse fill="#fdb462" stroke="#000000" cx="552" cy="-104" rx="59.6839" ry="18"/>
<text text-anchor="middle" x="552" y="-99.8" font-family="Times,serif" font-size="14.00" fill="#000000">CallsService</text>
</g>
<!-- CallsService&#45;&gt;AppModule -->
<g id="edge22" class="edge">
<title>CallsService&#45;&gt;AppModule</title>
<path fill="none" stroke="#000000" d="M552,-122.2843C552,-143.3211 552,-175 552,-175 552,-175 1818.9782,-175 1818.9782,-175"/>
<polygon fill="#000000" stroke="#000000" points="1818.9782,-178.5001 1828.9782,-175 1818.9781,-171.5001 1818.9782,-178.5001"/>
</g>
<!-- DataService -->
<g id="node24" class="node">
<title>DataService</title>
<ellipse fill="#fdb462" stroke="#000000" cx="416" cy="-104" rx="58.4415" ry="18"/>
<text text-anchor="middle" x="416" y="-99.8" font-family="Times,serif" font-size="14.00" fill="#000000">DataService</text>
</g>
<!-- DataService&#45;&gt;AppModule -->
<g id="edge23" class="edge">
<title>DataService&#45;&gt;AppModule</title>
<path fill="none" stroke="#000000" d="M416,-122.2921C416,-144.2057 416,-178 416,-178 416,-178 1819.0238,-178 1819.0238,-178"/>
<polygon fill="#000000" stroke="#000000" points="1819.0239,-181.5001 1829.0238,-178 1819.0238,-174.5001 1819.0239,-181.5001"/>
</g>
<!-- EnterpriseGuard -->
<g id="node25" class="node">
<title>EnterpriseGuard</title>
<ellipse fill="#fdb462" stroke="#000000" cx="265" cy="-104" rx="74.6976" ry="18"/>
<text text-anchor="middle" x="265" y="-99.8" font-family="Times,serif" font-size="14.00" fill="#000000">EnterpriseGuard</text>
</g>
<!-- EnterpriseGuard&#45;&gt;AppModule -->
<g id="edge24" class="edge">
<title>EnterpriseGuard&#45;&gt;AppModule</title>
<path fill="none" stroke="#000000" d="M265,-122.2479C265,-145.0179 265,-181 265,-181 265,-181 1819.2789,-181 1819.2789,-181"/>
<polygon fill="#000000" stroke="#000000" points="1819.2789,-184.5001 1829.2789,-181 1819.2788,-177.5001 1819.2789,-184.5001"/>
</g>
<!-- UsernameGuard -->
<g id="node26" class="node">
<title>UsernameGuard</title>
<ellipse fill="#fdb462" stroke="#000000" cx="98" cy="-104" rx="74.1181" ry="18"/>
<text text-anchor="middle" x="98" y="-99.8" font-family="Times,serif" font-size="14.00" fill="#000000">UsernameGuard</text>
</g>
<!-- UsernameGuard&#45;&gt;AppModule -->
<g id="edge25" class="edge">
<title>UsernameGuard&#45;&gt;AppModule</title>
<path fill="none" stroke="#000000" d="M98,-122.1532C98,-145.7566 98,-184 98,-184 98,-184 1818.9215,-184 1818.9215,-184"/>
<polygon fill="#000000" stroke="#000000" points="1818.9216,-187.5001 1828.9215,-184 1818.9215,-180.5001 1818.9216,-187.5001"/>
</g>
</g>
</svg>
